<svg width="32" height="32" viewBox="0 0 32 32" fill="none" xmlns="http://www.w3.org/2000/svg">
<path d="M9.19906 4.47098C9.34234 4.54309 9.54294 4.57914 9.64801 4.5521C9.77219 4.51605 9.85816 4.56112 9.93458 4.68731C10.0014 4.8045 10.1352 4.8676 10.2976 4.8676C10.4886 4.8676 10.6988 4.99379 11.0331 5.3183C11.482 5.75098 11.5107 5.80506 11.5011 6.24675C11.5011 6.50816 11.4152 6.86872 11.3197 7.07605C11.2146 7.27436 11.1477 7.51774 11.1573 7.62591C11.1764 7.72506 11.1191 7.86929 11.0426 7.93238C10.9567 7.99548 10.8898 8.13069 10.8898 8.23886C10.8898 8.33802 10.8038 8.56337 10.6892 8.73464C10.2498 9.41971 10.2498 9.43774 10.9662 9.63605C11.3197 9.72619 11.9023 9.83436 12.2653 9.8614C12.6379 9.89745 13.4976 10.0237 14.1853 10.1408C15.1979 10.3211 15.6182 10.3482 16.3919 10.3121C17.4235 10.249 18.8946 10.4113 20.1555 10.7267C20.5471 10.8259 21.3017 10.9341 21.8271 10.9611C22.7441 11.0152 22.7919 11.0062 23.1071 10.7808C23.4892 10.5104 23.8522 10.4834 24.4826 10.6907C24.9316 10.8349 25.008 10.9341 24.8456 11.1594C24.7501 11.3037 24.2916 11.538 24.1006 11.538C24.0241 11.538 23.8331 11.6101 23.6611 11.6913C23.4414 11.7994 23.088 11.8445 22.4003 11.8535C21.7029 11.8625 21.2826 11.9256 20.8241 12.0698C20.3943 12.2051 19.7925 12.2952 18.8659 12.3493C18.1304 12.3944 17.3949 12.4575 17.242 12.4935C17.0797 12.5296 16.4588 12.5656 15.857 12.5837C14.9782 12.6107 14.5865 12.5746 13.9179 12.4214C12.8767 12.187 12.6952 12.2501 12.4564 12.9172C12.2367 13.5301 12.2462 14.3324 12.4659 15.1166C12.6092 15.6394 12.6856 15.7746 12.8289 15.7746C13.0391 15.7746 13.3447 15.9189 13.6122 16.1352C13.7173 16.2253 13.9656 16.3245 14.1662 16.3515C14.3573 16.3876 14.7871 16.5859 15.1214 16.8022C15.857 17.271 16.8026 17.6225 17.8629 17.8208C18.331 17.902 18.7608 18.0372 18.8755 18.1363C18.9806 18.2265 19.1716 18.2986 19.2862 18.2986C19.4104 18.2986 19.8976 18.4248 20.3752 18.587C21.2158 18.8575 21.2731 18.8665 21.894 18.7673C23.1071 18.569 23.8044 18.6772 24.8074 19.2451C25.1895 19.4524 25.5429 19.5696 25.9346 19.6146C26.5937 19.6867 27.0713 19.8851 27.4152 20.2366C27.5489 20.3718 27.9788 20.6242 28.3704 20.7955C29.1823 21.147 29.6409 21.156 30.3955 20.8315C31.4367 20.3898 31.6182 20.471 31.6182 21.3994C31.6182 21.751 31.58 22.0935 31.5322 22.1656C31.4271 22.3189 30.8062 22.5352 30.4719 22.5352C30.3382 22.5352 30.0229 22.436 29.765 22.3189C29.4498 22.1746 29.1919 22.1206 28.9913 22.1476C28.762 22.1837 28.6188 22.1386 28.4086 21.9583C28.1889 21.787 27.9597 21.7149 27.5011 21.6789L26.8898 21.6248L26.7465 21.9222C26.6223 22.1837 26.5268 22.2377 25.9823 22.382C25.1609 22.5983 23.5179 22.6794 22.6868 22.5442C21.7507 22.391 20.3179 21.9403 19.4677 21.5256C18.7417 21.1831 18.694 21.1741 17.2707 21.0839C16.4683 21.0389 15.3794 20.9397 14.8635 20.8676C13.6408 20.6963 13.6982 20.6873 13.5644 21.0028C13.4976 21.147 13.3447 21.3724 13.2206 21.4986L12.9913 21.7329L13.2588 22.2287L13.5167 22.7335L14.1471 22.6884C14.491 22.6614 15.0259 22.5532 15.3411 22.4451C16.2008 22.1386 16.2964 22.1386 16.5161 22.3459C16.6307 22.4541 16.8504 22.5622 17.0032 22.5983C17.414 22.6704 17.4808 22.7966 17.5095 23.4907L17.5286 24.1127L17.2229 24.1397C17.051 24.1577 16.5925 24.0676 16.2008 23.9414C15.5608 23.7341 15.3889 23.716 14.2713 23.7431C12.9244 23.7791 11.8546 23.9955 10.4982 24.5093C10.097 24.6625 9.54294 24.8338 9.25637 24.8879C8.56861 25.0321 6.94473 24.951 6.41936 24.7437C5.63607 24.4372 5.40682 23.7611 5.83667 22.9679C6.27607 22.1566 7.69936 20.6873 8.48264 20.2546C8.77876 20.0924 8.79786 20.0473 8.74055 19.7498C8.70234 19.5696 8.65458 19.3983 8.63548 19.3622C8.5304 19.2 7.44145 19.867 6.68682 20.5521C5.67428 21.4715 5.47368 21.6067 5.32085 21.4625C5.17757 21.3273 5.40682 20.9127 5.97995 20.2997L6.4098 19.84L6.1901 19.7228C6.02771 19.6417 5.49279 19.6056 4.29876 19.6056C2.68443 19.6056 2.62712 19.5966 2.59846 19.4253C2.57936 19.2631 2.66533 19.218 3.24801 19.0738C3.8116 18.9296 4.11727 18.9115 5.0916 18.9656C6.5913 19.0467 7.05936 18.9296 7.63249 18.3437L8.03368 17.929L7.60383 17.4783C6.56264 16.3876 5.74115 14.8913 5.30174 13.3048C4.90055 11.8535 4.26055 10.9521 2.29279 9.05914C0.707117 7.53576 0.0957739 6.74252 0.0957739 6.20168C0.0957739 5.98534 0.16264 5.79605 0.277266 5.68788C0.573386 5.40844 1.94891 5.03886 2.91368 4.98478C3.38174 4.95774 3.8498 4.89464 3.93577 4.85858C4.02174 4.81351 4.38473 4.7414 4.74771 4.68731C5.36861 4.60619 5.41637 4.6152 5.7507 4.83154C6.03727 5.02083 6.11368 5.13802 6.171 5.45351C6.24742 5.98534 6.19965 6.16562 5.94174 6.20168C5.81757 6.21971 5.69339 6.29182 5.66473 6.36393C5.55965 6.62534 5.06294 6.50816 4.66174 6.12957C4.36562 5.85013 4.20324 5.769 3.95488 5.769C3.56324 5.769 3.16204 5.90421 2.90413 6.13858L2.69398 6.31886L3.47727 7.049C4.02174 7.57182 4.46115 7.8783 4.96742 8.12168C5.35906 8.31098 5.90354 8.62647 6.18055 8.82478C6.72503 9.2214 7.06891 9.41069 7.12622 9.35661C7.14533 9.32957 7.20264 9.10421 7.25995 8.85182C7.36503 8.31999 7.30771 8.05858 7.11667 8.20281C6.92563 8.35605 6.85876 8.07661 6.80145 6.94083C6.78234 6.37295 6.71548 5.87717 6.66771 5.85013C6.61995 5.82309 6.74413 5.64281 6.94473 5.45351C7.17398 5.23717 7.25995 5.09295 7.18354 5.07492C7.12622 5.04788 7.06891 4.97576 7.06891 4.90365C7.06891 4.83154 6.99249 4.77745 6.89697 4.77745C6.75368 4.76844 6.75368 4.75943 6.91607 4.64224C7.04025 4.5521 7.33637 4.50703 7.81398 4.50703C8.25339 4.50703 8.49219 4.47098 8.45398 4.41689C8.35846 4.28168 8.89339 4.31774 9.19906 4.47098Z" fill="url(#paint0_linear_58_87)"/>
<defs>
<linearGradient id="paint0_linear_58_87" x1="15.857" y1="24.9608" x2="15.857" y2="4.33315" gradientUnits="userSpaceOnUse">
<stop stop-color="#FFBF00"/>
<stop offset="1" stop-color="#F2A50C"/>
</linearGradient>
</defs>
</svg>
