<svg xmlns="http://www.w3.org/2000/svg" width="25" height="4" fill="none"><path fill="url(#a)" d="M3.566.296C2.283.696 1.24 1.34.479 2.212c-.705.815-.606 1.073.127.358C1.762 1.44 3.552.825 5.694.825c1.973 0 2.678.186 8.245 2.145 2.283.8 3.397 1.03 5.144 1.03 2.284.014 4.116-.572 5.356-1.745.69-.644.761-1.044.113-.543-1.255.972-2.72 1.401-4.736 1.401-1.846 0-2.917-.243-6.159-1.373C9.217.181 8.851.081 6.61.024 4.848-.033 4.524-.005 3.566.296Z"/><defs><linearGradient id="a" x1="12.5" x2="12.5" y1="4" y2="0" gradientUnits="userSpaceOnUse"><stop stop-color="#FFBF00"/><stop offset="1" stop-color="#F2A50C"/></linearGradient></defs></svg>