<svg xmlns="http://www.w3.org/2000/svg" width="341" height="16" fill="none"><path fill="#242833" d="M341 2.362c-1.736-.107-3.328-.107-5.064-.107-1.736 0-3.327-.107-5.063-.215-3.762-.215-7.379-.537-11.14-.751-7.089-.43-14.323-.86-21.412-.967A601.21 601.21 0 0 0 278.645 0h-5.064c-6.51.107-13.021.107-19.531.215-15.191.322-30.526.644-45.717 1.181-14.902.537-29.804 1.074-44.56 1.718-7.234.322-14.613.644-21.846.967-7.958.536-15.915.859-23.727 1.288-16.348.967-32.552 1.826-48.9 2.792a915.88 915.88 0 0 0-42.246 3.544C18.084 12.778 8.97 13.96 0 15.14c10.272.537 20.689.752 31.105.859 6.8 0 13.6-.107 20.255-.215 4.34-.107 8.68-.322 13.165-.537 2.75-.107 5.353-.322 7.957-.537 7.09-.537 14.323-.966 21.412-1.503 8.247-.537 16.349-1.181 24.595-1.718 8.391-.537 16.927-1.074 25.318-1.61 7.524-.43 15.191-.86 22.859-1.29 7.379-.429 14.902-.751 22.28-1.073 7.523-.322 14.902-.645 22.425-.967 7.668-.322 15.191-.43 22.859-.644 13.888-.43 27.777-.537 41.811-.644 7.812 0 15.48-.215 23.292-.43 7.668-.215 15.336-.43 22.859-.751 3.038-.108 6.221-.215 9.259-.43 1.447-.107 3.039-.215 4.485-.43 1.302-.214 2.604-.536 3.907-.644.434-.107.723-.215 1.157-.215Z"/></svg>