<svg width="60" height="60" viewBox="0 0 60 60" fill="none" xmlns="http://www.w3.org/2000/svg">
<path fill-rule="evenodd" clip-rule="evenodd" d="M30 0C13.4315 0 0 13.4315 0 30C0 46.5686 13.4315 60 30 60C46.5686 60 60 46.5686 60 30C60 13.4315 46.5686 0 30 0ZM30 0.75C13.8457 0.75 0.75 13.8457 0.75 30C0.75 46.1543 13.8457 59.25 30 59.25C21.9228 59.25 15.375 51.1728 15.375 45C15.375 36.9225 21.9228 30 30 30C38.0775 30 45 21.9228 45 15C45 6.9228 38.0775 0.75 30 0.75ZM30 49.875C32.6921 49.875 34.875 47.6921 34.875 45C34.875 42.3079 32.6921 40.125 30 40.125C27.3079 40.125 25.125 42.3079 25.125 45C25.125 47.6921 27.3079 49.875 30 49.875ZM30 9.9C27.1834 9.9 24.9 12.1834 24.9 15C24.9 17.8166 27.1834 20.1 30 20.1C32.8166 20.1 35.1 17.8166 35.1 15C35.1 12.1834 32.8166 9.9 30 9.9Z" fill="#E6EAF0"/>
</svg>
