<svg xmlns="http://www.w3.org/2000/svg" width="702" height="702" fill="none"><path stroke="#242833" stroke-width="2" d="M351 1C157.7 1 1 157.7 1 351s156.7 350 350 350m0-700c193.3 0 350 156.7 350 350S544.3 701 351 701m0-700c94.237 0 175 80.766 175 175 0 80.766-80.763 175-175 175-94.234 0-170.625 80.762-170.625 175 0 72.016 76.391 175 170.625 175m0-118.125c31.408 0 56.875-25.467 56.875-56.875S382.408 469.125 351 469.125 294.125 494.592 294.125 526s25.467 56.875 56.875 56.875Zm0-466.375c-32.861 0-59.5 26.639-59.5 59.5 0 32.861 26.639 59.5 59.5 59.5 32.861 0 59.5-26.639 59.5-59.5 0-32.861-26.639-59.5-59.5-59.5Z"/></svg>