<svg xmlns="http://www.w3.org/2000/svg" width="60" height="62" fill="none"><path fill="#F5F7FA" d="M17.227 8.663c.268.14.644.21.84.158.234-.07.395.017.537.263.126.227.376.35.68.35.358 0 .752.245 1.378.875.84.84.894.945.876 1.803 0 .508-.16 1.208-.34 1.61-.197.386-.322.858-.304 1.069.036.192-.071.472-.215.595a.83.83 0 0 0-.286.595c0 .192-.16.63-.376.963-.822 1.33-.822 1.365.52 1.75.661.176 1.753.386 2.432.438.698.07 2.307.315 3.596.543 1.896.35 2.683.402 4.132.332 1.932-.122 4.687.193 7.048.806.734.192 2.146.403 3.13.455 1.718.105 1.807.087 2.398-.35.716-.526 1.395-.578 2.576-.175.84.28.983.473.68.91-.18.28-1.038.735-1.396.735-.143 0-.5.14-.823.298-.411.21-1.073.298-2.361.315-1.306.017-2.093.14-2.952.42-.805.263-1.931.438-3.667.543-1.377.087-2.755.21-3.04.28-.305.07-1.468.14-2.595.175-1.646.053-2.379-.018-3.631-.315-1.95-.455-2.29-.333-2.737.963-.412 1.19-.394 2.748.018 4.271.268 1.016.411 1.278.68 1.278.393 0 .965.28 1.466.7.197.175.662.368 1.038.42.358.071 1.163.456 1.789.876 1.377.91 3.148 1.593 5.134 1.979.877.157 1.681.42 1.896.612.197.175.555.316.77.316.232 0 1.144.245 2.038.56 1.575.525 1.682.542 2.845.35 2.272-.386 3.578-.176 5.456.928.715.402 1.377.63 2.11.717 1.235.14 2.13.526 2.773 1.208.251.263 1.056.753 1.79 1.085 1.52.683 2.378.7 3.792.071 1.95-.858 2.29-.7 2.29 1.103 0 .682-.072 1.348-.162 1.488-.196.297-1.36.718-1.985.718-.25 0-.84-.193-1.324-.42-.59-.28-1.073-.386-1.449-.333-.43.07-.697-.018-1.091-.368-.411-.332-.84-.473-1.7-.543l-1.145-.105-.268.578c-.233.508-.411.613-1.431.893-1.538.42-4.615.578-6.171.315-1.754-.298-4.437-1.173-6.029-1.978-1.36-.665-1.449-.683-4.114-.858-1.503-.088-3.542-.28-4.508-.42-2.29-.333-2.183-.35-2.433.263-.126.28-.411.717-.644.962l-.43.456.502.962.483.98 1.18-.087c.644-.053 1.646-.262 2.237-.472 1.61-.596 1.788-.596 2.2-.193.214.21.625.42.912.49.769.14.894.385.948 1.733l.036 1.208-.572.053c-.322.035-1.181-.14-1.915-.386-1.198-.402-1.52-.437-3.613-.385-2.523.07-4.526.49-7.066 1.489-.752.297-1.789.63-2.325.735-1.289.28-4.33.122-5.313-.28-1.467-.595-1.897-1.909-1.092-3.45.823-1.575 3.489-4.428 4.955-5.269.555-.315.59-.402.483-.98-.071-.35-.16-.683-.196-.753-.197-.315-2.237.98-3.65 2.311-1.896 1.785-2.271 2.048-2.558 1.768-.268-.262.161-1.068 1.234-2.258l.805-.893-.41-.228c-.305-.157-1.307-.227-3.543-.227-3.023 0-3.13-.018-3.184-.35-.036-.315.125-.403 1.216-.683 1.056-.28 1.628-.315 3.453-.21 2.809.158 3.685-.07 4.758-1.208l.752-.806-.805-.874c-1.95-2.119-3.489-5.025-4.311-8.107-.752-2.818-1.95-4.569-5.636-8.245-2.969-2.959-4.114-4.5-4.114-5.55 0-.42.125-.788.34-.997.555-.543 3.13-1.26 4.937-1.366.877-.052 1.754-.175 1.915-.245.16-.088.84-.228 1.52-.333 1.162-.157 1.252-.14 1.878.28.537.368.68.596.787 1.208.143 1.033.054 1.383-.43 1.453-.232.036-.464.176-.518.316-.197.507-1.127.28-1.878-.455-.555-.543-.859-.7-1.324-.7-.733 0-1.485.262-1.967.717l-.394.35 1.467 1.418c1.02 1.016 1.842 1.611 2.79 2.084.734.367 1.754.98 2.272 1.365 1.02.77 1.664 1.138 1.771 1.033.036-.053.143-.49.25-.98.197-1.034.09-1.541-.268-1.261-.358.297-.482-.245-.59-2.45-.036-1.104-.161-2.067-.25-2.12-.09-.052.143-.402.518-.77.43-.42.59-.7.448-.735a.404.404 0 0 1-.215-.333c0-.14-.143-.245-.322-.245-.268-.017-.268-.034.036-.262.232-.175.786-.263 1.68-.263.824 0 1.272-.07 1.2-.174-.18-.263.822-.193 1.395.104Z"/></svg>